<svg version="1.1" xmlns="http://www.w3.org/2000/svg" xmlns:xlink="http://www.w3.org/1999/xlink" viewBox="299.5 299.5 401 300.5">
	<path id="circle" d="M557.57,481.245c0,31.975-25.85,57.826-57.826,57.826c-31.974,0-57.825-25.852-57.825-57.826 s25.852-57.827,57.825-57.827C531.721,423.418,557.57,449.271,557.57,481.245z"/>
	<path id="tick" d="M469.896,481.245l20.919,21.77l38.777-38.268"/>
	<g id="pop-group">
		<path d="M441.919,484.307l-43.54,0.68"/>
		<path d="M460.627,523.934l-31.464,32.485"/>
		<path d="M501.956,539.071l0.17,42.179"/>
		<path d="M541.073,521.554l29.594,29.423"/>
		<path d="M557.401,482.436l44.221-0.681"/>
		<path d="M541.073,440.937l29.594-30.614"/>
		<path d="M501.616,423.418V381.75"/>
		<path d="M459.096,440.087l-29.933-29.764"/>
	</g>
</svg>
