<?xml version="1.0" encoding="utf-8"?>
<!-- Generator: Adobe Illustrator 16.0.0, SVG Export Plug-In . SVG Version: 6.00 Build 0)  -->
<!DOCTYPE svg PUBLIC "-//W3C//DTD SVG 1.1//EN" "http://www.w3.org/Graphics/SVG/1.1/DTD/svg11.dtd">
<svg version="1.1" id="Layer_1" xmlns="http://www.w3.org/2000/svg" xmlns:xlink="http://www.w3.org/1999/xlink" x="0px" y="0px"
	 width="26.9px" height="30px" viewBox="93.4 104.3 26.9 30" enable-background="new 93.4 104.3 26.9 30" xml:space="preserve">
<path fill="#FEFEFE" d="M117.5,127.7c-0.2,0.2-0.4,0.5-0.8,0.8c-0.4,0.3-0.8,0.7-1.3,1c-0.6,0.3-1.2,0.6-2,0.7
	c-0.7,0.2-1.6,0.2-2.5,0.1c-0.7-0.1-1.4-0.3-2-0.6c-0.6-0.3-1.1-0.7-1.5-1.2c-0.4-0.5-0.7-1-0.9-1.7c-0.2-0.6-0.3-1.3-0.2-2.1
	c0.1-0.5,0.2-1,0.4-1.5c0.2-0.4,0.5-0.8,0.8-1.2c0.3-0.3,0.6-0.6,1-0.9c0.4-0.3,0.7-0.4,1.1-0.6c-0.3-0.2-0.6-0.5-0.9-0.9
	c-0.3-0.3-0.5-0.7-0.7-1.1c-0.2-0.4-0.3-0.9-0.4-1.4c-0.1-0.5-0.1-1.1,0-1.7c0.1-0.7,0.3-1.3,0.5-1.9s0.6-1.2,1-1.8s0.9-1.1,1.5-1.6
	c0.6-0.5,1.1-0.9,1.8-1.2c0.6-0.3,1.3-0.6,2-0.7c0.7-0.2,1.4-0.2,2.1-0.1c0.7,0.1,1.3,0.3,1.8,0.5s0.9,0.6,1.2,1s0.5,0.8,0.7,1.3
	s0.2,1,0.1,1.6c-0.1,0.8-0.3,1.5-0.7,2.2c-0.4,0.7-0.9,1.3-1.4,1.8c-0.6,0.5-1.2,0.9-1.9,1.2s-1.4,0.4-2.2,0.3
	c-0.2,0-0.4-0.1-0.6-0.1c-0.2-0.1-0.4-0.2-0.5-0.3c-0.1-0.1-0.3-0.3-0.3-0.5s-0.1-0.4-0.1-0.7c0-0.1,0-0.2,0.1-0.3
	c0-0.1,0.1-0.2,0.1-0.3c0-0.1,0.1-0.2,0.1-0.3c0.1-0.1,0.1-0.1,0.2-0.1c0,0,0.1,0,0.1,0.1c0,0,0.1,0.1,0.2,0.1
	c0.1,0.1,0.2,0.1,0.3,0.1c0.1,0.1,0.3,0.1,0.5,0.1c0.5,0.1,1,0,1.4-0.2c0.4-0.2,0.8-0.4,1.2-0.8c0.3-0.3,0.6-0.7,0.8-1.2
	s0.4-0.9,0.4-1.4c0.1-0.5-0.1-1-0.4-1.3c-0.3-0.3-0.7-0.5-1.3-0.6c-0.7-0.1-1.5,0-2.2,0.3c-0.7,0.3-1.4,0.7-1.9,1.1
	c-0.6,0.5-1.1,1.1-1.4,1.7c-0.4,0.7-0.6,1.4-0.7,2.1c-0.1,0.6,0,1.1,0.1,1.6c0.1,0.5,0.3,0.9,0.6,1.3c0.3,0.4,0.5,0.7,0.9,1
	c0.3,0.2,0.6,0.3,0.9,0.4c0.1,0.1,0.3,0.1,0.4,0.2c0.1,0,0.2,0.1,0.2,0.2c0.3,0.3,0.2,0.6,0,1c-0.1,0.2-0.1,0.3-0.2,0.5
	c-0.1,0.1-0.2,0.3-0.3,0.4c-0.1,0.1-0.2,0.1-0.3,0.1c-0.3,0-0.7,0-1,0.1c-0.4,0.1-0.8,0.2-1.1,0.4s-0.7,0.5-0.9,0.9
	c-0.3,0.4-0.4,0.8-0.5,1.4c-0.1,0.4,0,0.7,0.1,1.1c0.1,0.3,0.3,0.6,0.5,0.9s0.5,0.5,0.9,0.6c0.3,0.2,0.7,0.3,1.1,0.3
	c0.6,0.1,1.2,0.1,1.7,0s1-0.3,1.4-0.5c0.4-0.2,0.7-0.4,1-0.7c0.3-0.3,0.5-0.5,0.6-0.7c0.1-0.2,0.2-0.3,0.3-0.3
	c0.1-0.1,0.2-0.1,0.4-0.1c0.1,0,0.3,0.1,0.4,0.2c0.1,0.1,0.3,0.2,0.4,0.4c0.1,0.2,0.2,0.3,0.2,0.5c0.1,0.2,0.1,0.4,0,0.5
	C117.6,127.5,117.5,127.6,117.5,127.7z"/>
<path fill="#FEFEFE" d="M107.8,106.1c0.1-0.2,0.1-0.3,0-0.5s-0.1-0.3-0.2-0.5c-0.1-0.1-0.2-0.3-0.3-0.4c-0.1-0.1-0.3-0.2-0.4-0.2
	c-0.6-0.2-1.2-0.2-1.8-0.3c-0.6-0.1-1.3,0-2,0.1c-0.7,0.1-1.3,0.3-2,0.6c-0.7,0.3-1.3,0.7-1.8,1.2s-1.1,1.1-1.5,1.8
	c-0.5,0.7-0.8,1.6-1.1,2.6c-0.2,0.8-0.3,1.6-0.3,2.3c0,0.7,0.1,1.3,0.2,1.9c0.1,0.5,0.3,1,0.5,1.4c0.3,0.5,0.6,1,1.2,1.2
	c0.4,0.1,0.8-0.1,1.1-0.3c0.3-0.2,0.6-0.5,0.6-0.9c0-0.2-0.1-0.2-0.2-0.3c-0.5-0.4-0.8-1.1-1-1.7c-0.1-0.4-0.1-0.8-0.1-1.3
	c0-0.5,0.1-1,0.2-1.6c0.2-0.9,0.6-1.7,1-2.3s0.9-1.1,1.5-1.5c0.6-0.4,1.2-0.6,1.8-0.8c0.7-0.1,1.3-0.2,2-0.1l-5,19.1l-0.1,0.3
	c-0.7,0-1.4,0.1-2.1,0.2c-0.7,0.1-1.4,0.4-2,0.7s-1.1,0.7-1.6,1.2c-0.4,0.5-0.8,1.1-1,1.8c-0.1,0.5-0.2,1-0.1,1.4
	c0,0.5,0.2,0.9,0.4,1.2c0.2,0.4,0.5,0.7,0.8,1c0.4,0.3,0.8,0.5,1.3,0.6c0.8,0.2,1.6,0.2,2.2-0.1c0.6-0.3,1.2-0.7,1.7-1.3
	c0.5-0.6,0.9-1.3,1.3-2.1c0.4-0.8,0.7-1.6,0.9-2.4c0.2,0,0.4,0.1,0.6,0.1c0.2,0,0.4,0.1,0.6,0.2c0.3,0.1,0.5,0,0.8-0.2
	s0.5-0.4,0.6-0.7c0.2-0.3,0.2-0.5,0.2-0.8c0-0.3-0.2-0.4-0.6-0.5c-0.2,0-0.5-0.1-0.8-0.1c-0.3-0.1-0.5-0.1-0.8-0.1l0.2-0.9
	L107.8,106.1z M99,129.7c-0.2,0.5-0.5,0.9-0.7,1.3c-0.3,0.4-0.5,0.6-0.8,0.8c-0.3,0.2-0.6,0.2-0.9,0.1c-0.3-0.1-0.5-0.2-0.7-0.5
	c-0.2-0.2-0.2-0.6-0.1-1c0.2-0.7,0.6-1.3,1.2-1.7c0.6-0.4,1.5-0.6,2.5-0.6C99.4,128.7,99.2,129.2,99,129.7z"/>
</svg>
