<?xml version="1.0" standalone="no"?>
<!DOCTYPE svg PUBLIC "-//W3C//DTD SVG 20010904//EN"
 "http://www.w3.org/TR/2001/REC-SVG-20010904/DTD/svg10.dtd">
<svg version="1.0" xmlns="http://www.w3.org/2000/svg"
 width="1000.000000pt" height="1000.000000pt" viewBox="0 0 1000.000000 1000.000000"
 preserveAspectRatio="xMidYMid meet">
<metadata>
Created by potrace 1.11, written by Peter Selinger 2001-2013
</metadata>
<g transform="translate(0.000000,1000.000000) scale(0.100000,-0.100000)"
fill="#000000" stroke="none">
<path d="M0 5000 l0 -5000 5000 0 5000 0 0 5000 0 5000 -5000 0 -5000 0 0
-5000z m4764 3956 c329 -54 409 -94 474 -234 51 -113 52 -109 -126 -787 -837
-3183 -1233 -4693 -1235 -4710 -2 -16 5 -21 33 -23 98 -8 391 -66 437 -87 58
-26 80 -58 89 -128 21 -155 -156 -390 -322 -428 -46 -10 -64 -8 -205 24 -189
44 -200 46 -209 27 -5 -8 -36 -96 -71 -195 -268 -775 -599 -1216 -1014 -1351
-117 -39 -308 -44 -454 -14 -213 43 -341 110 -481 250 -79 78 -104 111 -142
185 -87 170 -118 339 -98 524 48 437 294 778 708 981 271 133 515 192 926 223
l159 12 483 1840 c266 1012 571 2171 677 2575 l193 735 -70 8 c-93 11 -296 2
-416 -19 -383 -64 -722 -302 -940 -659 -161 -262 -274 -628 -287 -930 -16
-379 81 -675 276 -845 54 -45 61 -56 61 -88 0 -20 -10 -56 -22 -81 -32 -66
-147 -174 -226 -213 -61 -30 -75 -33 -157 -33 -74 0 -97 4 -133 23 -192 102
-365 456 -418 856 -23 166 -22 466 0 611 93 595 322 1067 689 1421 158 153
275 236 462 329 222 110 450 179 710 214 106 15 531 6 649 -13z m2776 -1021
c398 -47 682 -201 859 -466 114 -169 163 -337 163 -554 0 -377 -154 -757 -441
-1084 -218 -248 -576 -455 -876 -508 -116 -20 -363 -13 -445 12 -168 52 -263
147 -289 288 -26 143 51 397 120 397 11 0 39 -16 64 -35 68 -51 158 -77 296
-82 95 -4 130 -2 197 15 151 38 294 123 417 247 160 161 277 385 321 613 60
316 -97 500 -465 542 -218 26 -441 -17 -677 -130 -370 -177 -708 -540 -853
-915 -99 -256 -124 -503 -72 -721 59 -243 156 -419 316 -573 87 -83 113 -99
318 -191 126 -57 158 -84 178 -151 33 -109 -91 -377 -202 -434 -16 -9 -55 -15
-91 -15 -137 0 -315 -38 -442 -94 -148 -66 -290 -204 -361 -351 -69 -143 -102
-318 -85 -450 51 -399 425 -648 934 -622 401 21 779 217 975 506 88 129 198
145 310 45 90 -81 151 -208 151 -315 0 -93 -35 -148 -193 -305 -212 -210 -426
-345 -696 -438 -237 -82 -394 -110 -621 -109 -791 2 -1359 399 -1490 1042 -27
134 -27 346 0 503 74 431 358 803 753 988 l87 41 -93 92 c-272 270 -406 573
-424 955 -21 453 135 916 452 1337 309 411 765 735 1211 858 268 75 451 91
694 62z"/>
<path d="M2946 2649 c-186 -20 -342 -61 -470 -125 -232 -117 -387 -334 -412
-578 -14 -133 50 -240 172 -286 241 -91 491 142 700 652 49 120 124 324 124
339 0 10 -1 10 -114 -2z"/>
</g>
</svg>
